<?xml version="1.0" standalone="no"?><!DOCTYPE svg PUBLIC "-//W3C//DTD SVG 1.1//EN" "http://www.w3.org/Graphics/SVG/1.1/DTD/svg11.dtd"><svg t="1754590295071" class="icon" viewBox="0 0 1024 1024" version="1.1" xmlns="http://www.w3.org/2000/svg" p-id="7682" xmlns:xlink="http://www.w3.org/1999/xlink" width="200" height="200"><path d="M319.92 506.62h384.22v413a32 32 0 0 1-32 32H351.92a32 32 0 0 1-32-32v-413z" fill="#292929" p-id="7683"></path><path d="M319.84 73.95m31.97 0l320.06 0q31.97 0 31.97 31.97l0 5.39q0 31.97-31.97 31.97l-320.06 0q-31.97 0-31.97-31.97l0-5.39q0-31.97 31.97-31.97Z" fill="#D0D0D0" p-id="7684"></path><path d="M319.92 136.63h383.85v370H319.92z" fill="#871F20" p-id="7685"></path><path d="M320.25 97.34m33.38 0l317.31 0q33.38 0 33.38 33.38l0 151.28q0 33.38-33.38 33.38l-317.31 0q-33.38 0-33.38-33.38l0-151.28q0-33.38 33.38-33.38Z" fill="#CE2F30" p-id="7686"></path><path d="M256.53 299v29.07a17.36 17.36 0 1 0 34.72 0V299c0-0.32 0-0.62-0.05-0.94h73.56v-16.42h-90.87A17.41 17.41 0 0 0 256.53 299zM750.26 281.64h-90.87v16.42H733c0 0.32-0.05 0.62-0.05 0.94v29.07a17.41 17.41 0 0 0 17.36 17.36 17.41 17.41 0 0 0 17.36-17.36V299a17.41 17.41 0 0 0-17.41-17.36z" fill="#E3E3E3" p-id="7687"></path><path d="M674 506.62H349.69V280.13l41.75 40.49H632.2l41.8-40.49z" fill="#B5292A" p-id="7688"></path><path d="M623.75 506.62H399.89a8.43 8.43 0 0 1-8.45-8.36V329a8.43 8.43 0 0 1 8.45-8.36h223.86a8.43 8.43 0 0 1 8.45 8.36v169.26a8.4 8.4 0 0 1-8.45 8.36zM349.69 280.13H674l-41.8 40.49H391.44z" fill="#CE2F30" p-id="7689"></path><path d="M359.69 282.68H664l-39.22 32.7H398.91z" fill="#50B4AE" p-id="7690"></path><path d="M581 112.06L550.16 101a118.63 118.63 0 0 0-80.49 0l-30.85 11.1a45.1 45.1 0 0 0-27.56 28.23l-61.57 139.8H674l-65.42-139.84A45.18 45.18 0 0 0 581 112.06z" fill="#CE2F30" p-id="7691"></path><path d="M512.22 94a119.41 119.41 0 0 0-42.55 7l-30.85 11.1a45.1 45.1 0 0 0-27.56 28.23l-61.57 139.8h162.53z" p-id="7692"></path><path d="M411.26 165.93a45.09 45.09 0 0 1 27.56-28.24l30.85-11.1a118.63 118.63 0 0 1 80.49 0l30.84 11.1a45.1 45.1 0 0 1 27.57 28.24l53.68 114.2H674l-65.46-148a45.1 45.1 0 0 0-27.54-28.2l-30.84-11.14a118.51 118.51 0 0 0-80.49 0l-30.85 11.14a45.09 45.09 0 0 0-27.56 28.24l-61.38 148H361z" fill="#B5292A" p-id="7693"></path><path d="M354.76 299l27.15 27.45V478h-27.15z m312.43 0L640 326.48V478h27.15z" fill="#50B3AD" p-id="7694"></path><path d="M349.69 506.62H674v370.73a32 32 0 0 1-32 32H381.69a32 32 0 0 1-32-32z" fill="#B5292A" p-id="7695"></path><path d="M429.62 506.62H594v402.73H429.62z" fill="#871F20" p-id="7696"></path><path d="M343.07 165v-30.42a6.58 6.58 0 0 1 6.62-6.55h26.11a6.58 6.58 0 0 1 6.62 6.55V165a19.68 19.68 0 0 1-39.35 0z" fill="#B5292A" p-id="7697"></path><path d="M343.07 140.2v-6.64a5.55 5.55 0 0 1 5.59-5.53h28.17a5.55 5.55 0 0 1 5.59 5.53v6.64z" fill="#D0D0D0" p-id="7698"></path><path d="M638.31 165v-30.42a6.57 6.57 0 0 1 6.62-6.55H671a6.58 6.58 0 0 1 6.62 6.55V165a19.68 19.68 0 0 1-39.35 0z" fill="#B5292A" p-id="7699"></path><path d="M638.31 140.2v-6.64a5.54 5.54 0 0 1 5.58-5.53h28.18a5.55 5.55 0 0 1 5.59 5.53v6.64z" fill="#D0D0D0" p-id="7700"></path><path d="M426.69 878.94H599.3v30.42H426.69zM506.26 720.81v-22.25H518v33.9a11.74 11.74 0 0 1-11.74-11.65z" fill="#B5292A" p-id="7701"></path><path d="M541.9 727.82a4.58 4.58 0 0 1-4.6 4.55h-21.79a9.19 9.19 0 0 1-9.25-9.15h31a4.66 4.66 0 0 1 4.6 4.6z" fill="#B5292A" p-id="7702"></path><path d="M531.66 747.23v-16.11a3.34 3.34 0 0 1 6.67 0v16.11a3.33 3.33 0 0 1-3.34 3.3 3.37 3.37 0 0 1-3.33-3.3z" fill="#292929" p-id="7703"></path><path d="M466.08 539.33v-3.44h6.72v3.44z" fill="#FFD800" p-id="7704"></path><path d="M464.27 534.11a3.63 3.63 0 1 1-3.47 3.44 3.64 3.64 0 0 1 3.47-3.44z m93.35 2.11v3.43h-6.71v-3.43z" fill="#FFD800" p-id="7705"></path><path d="M471.08 537.78a5.89 5.89 0 0 1 5.92-5.85h70.3a5.85 5.85 0 0 1 0 11.7H477a5.9 5.9 0 0 1-5.87-5.85z" fill="#F0C419" p-id="7706"></path><path d="M532.88 541.4a3.62 3.62 0 1 1 3.48-3.43 3.64 3.64 0 0 1-3.48 3.43z m-31 0a3.62 3.62 0 1 1 3.48-3.43 3.64 3.64 0 0 1-3.52 3.43z m57.57 0a3.62 3.62 0 1 1 3.48-3.43 3.63 3.63 0 0 1-3.52 3.43z m-86.63 149.73v3.44h-6.72v-3.44z" fill="#FFD800" p-id="7707"></path><path d="M464.27 696.33a3.62 3.62 0 1 0-3.47-3.44 3.64 3.64 0 0 0 3.47 3.44z m86.62-2.08v-3.44h6.72v3.44z" fill="#FFD800" p-id="7708"></path><path d="M471.08 692.71a5.89 5.89 0 0 0 5.92 5.85h70.3a5.85 5.85 0 0 0 0-11.7H477a5.85 5.85 0 0 0-5.87 5.85z" fill="#F0C419" p-id="7709"></path><path d="M532.88 689a3.62 3.62 0 1 0 3.48 3.44 3.65 3.65 0 0 0-3.48-3.44z m-31 0a3.62 3.62 0 1 0 3.48 3.44 3.65 3.65 0 0 0-3.52-3.44z m57.57 0a3.62 3.62 0 1 0 3.48 3.44 3.63 3.63 0 0 0-3.52-3.44z" fill="#FFD800" p-id="7710"></path><path d="M475.92 550.14a6.56 6.56 0 0 1 6.57-6.51h59.27a6.51 6.51 0 1 1 0 13h-59.27a6.56 6.56 0 0 1-6.57-6.49z" fill="#B5292A" p-id="7711"></path><path d="M475.92 563.14a6.55 6.55 0 0 1 6.57-6.5h59.27a6.5 6.5 0 1 1 0 13h-59.27a6.56 6.56 0 0 1-6.57-6.5z" fill="#CE2F30" p-id="7712"></path><path d="M475.92 576.14a6.56 6.56 0 0 1 6.57-6.5h59.27a6.5 6.5 0 1 1 0 13h-59.27a6.5 6.5 0 0 1-6.57-6.5z" fill="#B5292A" p-id="7713"></path><path d="M475.92 589.19a6.56 6.56 0 0 1 6.57-6.5h59.27a6.5 6.5 0 1 1 0 13h-59.27a6.55 6.55 0 0 1-6.57-6.5z" fill="#CE2F30" p-id="7714"></path><path d="M475.92 602.2a6.56 6.56 0 0 1 6.57-6.51h59.27a6.51 6.51 0 1 1 0 13h-59.27a6.53 6.53 0 0 1-6.57-6.49z" fill="#B5292A" p-id="7715"></path><path d="M475.92 615.25a6.56 6.56 0 0 1 6.57-6.51h59.27a6.51 6.51 0 1 1 0 13h-59.27a6.56 6.56 0 0 1-6.57-6.49z" fill="#CE2F30" p-id="7716"></path><path d="M475.92 628.25a6.55 6.55 0 0 1 6.57-6.5h59.27a6.5 6.5 0 1 1 0 13h-59.27a6.53 6.53 0 0 1-6.57-6.5z" fill="#B5292A" p-id="7717"></path><path d="M475.92 641.3a6.55 6.55 0 0 1 6.57-6.5h59.27a6.5 6.5 0 1 1 0 13h-59.27a6.56 6.56 0 0 1-6.57-6.5z" fill="#CE2F30" p-id="7718"></path><path d="M475.92 654.3a6.56 6.56 0 0 1 6.57-6.5h59.27a6.5 6.5 0 1 1 0 13h-59.27a6.55 6.55 0 0 1-6.57-6.5z" fill="#B5292A" p-id="7719"></path><path d="M475.92 667.31a6.56 6.56 0 0 1 6.57-6.51h59.27a6.51 6.51 0 1 1 0 13h-59.27a6.5 6.5 0 0 1-6.57-6.49z" fill="#CE2F30" p-id="7720"></path><path d="M475.92 680.36a6.56 6.56 0 0 1 6.57-6.51h59.27a6.51 6.51 0 1 1 0 13h-59.27a6.56 6.56 0 0 1-6.57-6.49z m30.34-161.85v13.42H518v-13.42a5.87 5.87 0 0 0-11.74 0z" fill="#B5292A" p-id="7721"></path><path d="M339.27 534.11h10.38v25.08h-10.38z m0 75.1h10.38v25.08h-10.38z m4.27-32.33h6.15v17.79h-6.15z m357.7 57.4h-10.38V609.2h10.38z m0-75.06h-10.38v-25.08h10.38zM451.42 919.74v-10.26h25.36v10.26z m98.24 0v-10.26H575v10.26zM697 591.51h-6.15v-17.78H697z" fill="#FFD800" p-id="7722"></path><path d="M550.12 92.79a118.87 118.87 0 0 0-80.49 0l-25.08 9v8.36H475a7.19 7.19 0 0 0 7.23 7.15h55.32a7.19 7.19 0 0 0 7.23-7.15h30.43v-8.36z" fill="#E3E3E3" p-id="7723"></path><path d="M572.37 100.77l-22.21-8a118.87 118.87 0 0 0-80.49 0l-18.36 6.59v3.67h30.86a8.56 8.56 0 0 0 8.64 8.54h39.3a8.56 8.56 0 0 0 8.64-8.54h33.62z" fill="#424242" p-id="7724"></path><path d="M479.35 103h63.06v3.44h-63.06zM475.5 91h68.84a121.28 121.28 0 0 0-14-3.43h-41A118 118 0 0 0 475.5 91z m92 8.09l-9.5-3.47h-96.17l-9.48 3.44z" fill="#E3E3E3" p-id="7725"></path><path d="M615.15 350.81h-206.1a10.54 10.54 0 1 1 0-21.08h206.1a10.54 10.54 0 1 1 0 21.08zM634.6 936.89h-245a4.32 4.32 0 1 1 0-8.63h245a4.32 4.32 0 1 1 0 8.63z" fill="#FFFFFF" p-id="7726"></path><path d="M314.93 868.79v-42.22h5v42.22z" fill="#292929" p-id="7727"></path><path d="M309.71 833.92v27.53a2.35 2.35 0 0 0 2.35 2.35H315v-32.24h-2.92a2.33 2.33 0 0 0-2.37 2.36z" fill="#B5292A" p-id="7728"></path><path d="M310.32 836.51v22.35a1.41 1.41 0 1 0 2.82 0v-22.35a1.41 1.41 0 1 0-2.82 0z" fill="#FFFFFF" opacity=".1" p-id="7729"></path><path d="M704.14 868.82V826.6h5v42.22z" fill="#292929" p-id="7730"></path><path d="M714.42 833.92v27.53a2.36 2.36 0 0 1-2.36 2.35h-2.92v-32.24h2.92a2.37 2.37 0 0 1 2.36 2.36z" fill="#B5292A" p-id="7731"></path><path d="M713.76 836.51v22.35a1.42 1.42 0 0 1-2.83 0v-22.35a1.43 1.43 0 0 1 1.42-1.42 1.39 1.39 0 0 1 1.41 1.42z" fill="#FFFFFF" opacity=".1" p-id="7732"></path><path d="M314.93 750.22V708h5v42.22z" fill="#292929" p-id="7733"></path><path d="M309.71 715.35v27.54a2.35 2.35 0 0 0 2.35 2.35H315V713h-2.92a2.32 2.32 0 0 0-2.37 2.35z" fill="#B5292A" p-id="7734"></path><path d="M310.32 717.94v22.36a1.41 1.41 0 0 0 2.82 0v-22.36a1.41 1.41 0 1 0-2.82 0z" fill="#FFFFFF" opacity=".1" p-id="7735"></path><path d="M704.14 750.25V708h5v42.22z" fill="#292929" p-id="7736"></path><path d="M714.42 715.35v27.54a2.36 2.36 0 0 1-2.36 2.35h-2.92V713h2.92a2.36 2.36 0 0 1 2.36 2.35z" fill="#B5292A" p-id="7737"></path><path d="M713.76 717.94v22.36a1.42 1.42 0 0 1-2.83 0v-22.36a1.42 1.42 0 0 1 1.42-1.41 1.38 1.38 0 0 1 1.41 1.41z" fill="#FFFFFF" opacity=".1" p-id="7738"></path><path d="M405.18 74H363v-5h42.22z" fill="#292929" p-id="7739"></path><path d="M368 65.93v3h32.2v-3a2.38 2.38 0 0 0-2.35-2.4h-27.54a2.35 2.35 0 0 0-2.31 2.4z" fill="#F8EB75" p-id="7740"></path><path d="M661.23 74H619v-5h42.22z" fill="#292929" p-id="7741"></path><path d="M624 65.93v3h32.24v-3a2.38 2.38 0 0 0-2.35-2.4h-27.53a2.35 2.35 0 0 0-2.36 2.4z" fill="#F8EB75" p-id="7742"></path><path d="M405.18 954.13H363v-5h42.22z" fill="#292929" p-id="7743"></path><path d="M370.31 959.56h27.54a2.39 2.39 0 0 0 2.35-2.41v-3H368v3a2.35 2.35 0 0 0 2.31 2.41z" fill="#B5292A" p-id="7744"></path><path d="M661.23 954.13H619v-5h42.22z" fill="#292929" p-id="7745"></path><path d="M626.36 959.56h27.54a2.39 2.39 0 0 0 2.35-2.41v-3H624v3a2.35 2.35 0 0 0 2.36 2.41z" fill="#B5292A" p-id="7746"></path><path d="M480.49 404h64.82v41.38h-64.82z" fill="#C1C4C6" p-id="7747"></path><path d="M422.41 404a5 5 0 0 0-5 5v31.44a5 5 0 0 0 5 5h58.08v-41.37h-58.08zM603.43 404h-58.12v41.38h58.08a5 5 0 0 0 5-5V409a4.93 4.93 0 0 0-4.96-5z" fill="#C80406" p-id="7748"></path><path d="M480.49 415.36h64.82v18.74h-64.82z" fill="#FFFFFF" p-id="7749"></path><path d="M480.49 415.36H436a5 5 0 0 0-5 5v8.76a5 5 0 0 0 5 5h44.52zM589.83 415.36h-44.52v18.74h44.52a5 5 0 0 0 5-5v-8.76a5 5 0 0 0-5-4.98z" fill="#FD0302" p-id="7750"></path></svg>